<?xml version="1.0" standalone="no"?>
<svg xmlns="http://www.w3.org/2000/svg" width="325.57201048296514" height="95.37201048296517" viewBox="0 0 325.57201048296514 95.37201048296517"><g fill="#969696" color="#969696" transform="translate(0 9.714) scale(1.7661484)"><svg width="54.0" height="43.0" x="0.0" y="0.0" viewBox="0 0 54 43"><path fill="currentColor" fill-rule="evenodd" d="M23.479 7.8l3.188-3.022 4.047 3.907a.895.895 0 0 0 .157.119l-3.228 3.286-4.164-4.29zm16.17 30.37c1.91 0 2.923.877 3.738 1.581.745.643 1.333 1.151 2.586 1.151a.881.881 0 1 1 0 1.763c-1.909 0-2.923-.876-3.738-1.58-.745-.643-1.333-1.151-2.586-1.151s-1.842.508-2.586 1.151c-.816.705-1.829 1.58-3.739 1.58-1.909 0-2.923-.876-3.738-1.58-.745-.643-1.333-1.151-2.586-1.151s-1.84.508-2.586 1.151c-.815.705-1.829 1.58-3.739 1.58-1.909 0-2.923-.876-3.738-1.58-.745-.643-1.333-1.151-2.587-1.151-1.253 0-1.842.508-2.586 1.151-.815.705-1.829 1.58-3.739 1.58a.881.881 0 1 1 0-1.762c1.254 0 1.842-.508 2.587-1.151.815-.705 1.83-1.58 3.738-1.58 1.91 0 2.923.875 3.739 1.579.745.643 1.333 1.151 2.586 1.151s1.842-.508 2.586-1.151c.816-.704 1.83-1.58 3.739-1.58 1.91 0 2.923.876 3.738 1.58.745.643 1.333 1.151 2.586 1.151s1.842-.508 2.587-1.151c.815-.704 1.829-1.58 3.738-1.58zm4.763-7.286c2.466 0 3.746.942 4.875 1.773 1.043.769 1.943 1.431 3.83 1.431a.882.882 0 1 1 .001 1.764c-2.465 0-3.746-.943-4.875-1.774-1.043-.768-1.943-1.431-3.83-1.431s-2.788.663-3.831 1.43c-1.13.832-2.409 1.774-4.876 1.774-2.465 0-3.745-.942-4.875-1.774-1.042-.768-1.943-1.43-3.83-1.43s-2.787.662-3.83 1.43c-1.13.831-2.41 1.774-4.876 1.774s-3.746-.942-4.876-1.774c-1.042-.768-1.943-1.43-3.83-1.43-1.888 0-2.789.662-3.832 1.43-1.13.831-2.41 1.774-4.876 1.774a.881.881 0 0 1 0-1.762c1.887 0 2.788-.663 3.83-1.431 1.13-.831 2.41-1.774 4.877-1.774 2.466 0 3.746.942 4.876 1.774 1.042.768 1.943 1.43 3.83 1.43s2.788-.662 3.831-1.43c1.13-.832 2.41-1.774 4.876-1.774s3.746.942 4.875 1.774c1.043.768 1.943 1.43 3.83 1.43s2.788-.662 3.83-1.43c1.13-.832 2.41-1.774 4.876-1.774zM16.256.378l.127.11.022.023 5.846 6.024 3.212-3.042a1.761 1.761 0 0 1 2.305-.092l.123.108 4.047 3.907.072.08.06.087 3.786-3.856a1.767 1.767 0 0 1 2.35-.146l.126.11 11.872 11.416a.881.881 0 0 1-1.132 1.346l-.089-.075L37.112 4.963 26.14 16.138l-.067.06-.069.053a.89.89 0 0 1-.153.082l-.007.003-.077.027-.08.02-.08.013-.08.005h-.021l-11.384-.045a1.63 1.63 0 0 0-.136 3.252l.14.006h29.59c2.37 0 4.3 1.929 4.3 4.3 0 2.043-1.358 3.11-4.037 3.175l-.263.003H4.087a.882.882 0 0 1-.111-1.757l.11-.007h39.63c2.344 0 2.537-.67 2.537-1.415a2.54 2.54 0 0 0-2.37-2.531l-.166-.006h-29.59a3.395 3.395 0 0 1-3.392-3.391 3.396 3.396 0 0 1 3.206-3.387l.185-.005 11.016.044 1.266-1.289L15.164 1.763 5.221 12.806a.88.88 0 0 1-1.383-1.085l.074-.094L13.9.533a1.766 1.766 0 0 1 2.356-.155z"></path></svg></g><path fill="#003E8B" fill-rule="nonzero" d="M21.48 14.36L21.48 14.36L21.52 17.44Q21.36 20.36 20.80 22.36Q20.24 24.36 18.60 26L18.60 26Q15.88 28.72 10.68 28.72L10.68 28.72Q4.56 28.72 2.28 27.10Q0 25.48 0 21.24L0 21.24L0 0.24L11.08 0.24Q15.88 0.24 18.60 2.96L18.60 2.96Q20.80 5.16 21.20 8.32L21.20 8.32Q21.48 10.56 21.48 14.36ZM14.72 22Q15.48 21.08 15.70 19.46Q15.92 17.84 15.92 14.40Q15.92 10.96 15.70 9.42Q15.48 7.88 14.72 6.96L14.72 6.96Q13.28 5.20 10.56 5.20L10.56 5.20L5.56 5.20L5.56 20.96Q5.56 22.56 6.64 23.16Q7.72 23.76 10.50 23.76Q13.28 23.76 14.72 22L14.72 22ZM31.92 0.24L31.92 28.72L26.36 28.72L26.36 0.24L31.92 0.24ZM57.08 0.24L57.08 5.20L49.44 5.20L49.44 28.72L43.88 28.72L43.88 5.20L36.28 5.20L36.28 0.24L57.08 0.24ZM75.80 17.68L75.80 17.68L80.96 17.68Q80.96 23.12 78.24 26.04Q75.52 28.96 70.56 28.96L70.56 28.96Q59.64 28.96 59.64 16.12L59.64 16.12L59.64 13.72Q59.64 3.60 65.24 1.04L65.24 1.04Q67.44 0 70.56 0L70.56 0Q75.12 0 77.98 2.50Q80.84 5 80.84 9.72L80.84 9.72L75.64 9.72Q75.20 7.36 74.08 6.16Q72.96 4.96 70.56 4.96L70.56 4.96Q67.76 4.96 66.40 6.72L66.40 6.72Q65.44 7.96 65.28 10.96L65.28 10.96Q65.20 11.92 65.20 13.56L65.20 13.56L65.20 16.04Q65.20 20.64 66.48 22.32L66.48 22.32Q67.80 24 70.58 24Q73.36 24 74.42 22.46Q75.48 20.92 75.80 17.68ZM106.84 0.24L106.84 28.72L101.28 28.72L101.28 17.20L90.84 17.20L90.84 28.72L85.28 28.72L85.28 0.24L90.84 0.24L90.84 12.28L101.28 12.28L101.28 0.24L106.84 0.24Z" transform="translate(110.373 0) scale(2.015)"></path><path fill="#003E8B" fill-rule="nonzero" d="M17.98 2.70Q20.44 5.16 20.44 9.92Q20.44 14.68 17.98 17.14Q15.52 19.60 11.04 19.60L11.04 19.60L5.56 19.60L5.56 28.72L0 28.72L0 0.24L11.04 0.24Q15.52 0.24 17.98 2.70ZM14.88 9.92L14.88 9.92Q14.88 5.20 10.76 5.20L10.76 5.20L5.56 5.20L5.56 14.60L10.76 14.60Q12.76 14.60 13.82 13.52Q14.88 12.44 14.88 9.92ZM40.32 17.24L46.68 28.72L40.24 28.72L34.68 18.16L30.68 18.16L30.68 28.72L25.12 28.72L25.12 6.36Q25.12 3.16 26.60 1.70Q28.08 0.24 31.56 0.24L31.56 0.24L36.28 0.24Q40.52 0.24 43.02 2.82Q45.52 5.40 45.52 9.36L45.52 9.36Q45.52 12.24 44.02 14.34Q42.52 16.44 40.32 17.24L40.32 17.24ZM35.92 13.52Q37.68 13.52 38.82 12.30Q39.96 11.08 39.96 9.26Q39.96 7.44 38.86 6.32Q37.76 5.20 35.92 5.20L35.92 5.20L33.16 5.20Q30.68 5.20 30.68 7.72L30.68 7.72L30.68 13.52L35.92 13.52ZM72.16 13.16L72.16 13.16L72.16 15.32Q72.16 22.48 69.46 25.72Q66.76 28.96 60.80 28.96Q54.84 28.96 52.18 25.72Q49.52 22.48 49.52 15.20L49.52 15.20L49.52 13.12Q49.52 6.48 52.22 3.24Q54.92 0 60.78 0Q66.64 0 69.40 3.28Q72.16 6.56 72.16 13.16ZM66.60 15.20L66.60 15.20L66.60 13.72Q66.60 9.88 65.64 7.60L65.64 7.60Q64.52 4.96 60.84 4.96L60.84 4.96Q57.12 4.96 56 7.60L56 7.60Q55.08 9.76 55.08 13.72L55.08 13.72L55.08 15.20Q55.08 20.36 56.52 22.16L56.52 22.16Q57.08 22.92 58.18 23.46Q59.28 24 60.82 24Q62.36 24 63.44 23.48Q64.52 22.96 65.12 22.20Q65.72 21.44 66.04 20.20L66.04 20.20Q66.60 18.24 66.60 15.20ZM86.04 0.24L91.60 0.24L91.60 18.56Q91.60 24.28 89.24 26.62Q86.88 28.96 82.40 28.96L82.40 28.96Q79.52 28.96 77.58 28.20Q75.64 27.44 74 25.80L74 25.80L77.12 22.40Q77.80 23.08 79.18 23.54Q80.56 24 82.34 24Q84.12 24 85.08 23.14Q86.04 22.28 86.04 19.92L86.04 19.92L86.04 0.24ZM116.24 23.76L116.24 28.72L106.16 28.72Q101.36 28.72 99.42 27.06Q97.48 25.40 97.48 21.20L97.48 21.20L97.48 0.24L116.24 0.24L116.24 5.20L103.04 5.20L103.04 11.88L112.28 11.88L111.88 16.84L103.04 16.84L103.04 20.80Q103.04 22.48 103.80 23.12Q104.56 23.76 106.56 23.76L106.56 23.76L116.24 23.76ZM136.08 17.68L136.08 17.68L141.24 17.68Q141.24 23.12 138.52 26.04Q135.80 28.96 130.84 28.96L130.84 28.96Q119.92 28.96 119.92 16.12L119.92 16.12L119.92 13.72Q119.92 3.60 125.52 1.04L125.52 1.04Q127.72 0 130.84 0L130.84 0Q135.40 0 138.26 2.50Q141.12 5 141.12 9.72L141.12 9.72L135.92 9.72Q135.48 7.36 134.36 6.16Q133.24 4.96 130.84 4.96L130.84 4.96Q128.04 4.96 126.68 6.72L126.68 6.72Q125.72 7.96 125.56 10.96L125.56 10.96Q125.48 11.92 125.48 13.56L125.48 13.56L125.48 16.04Q125.48 20.64 126.76 22.32L126.76 22.32Q128.08 24 130.86 24Q133.64 24 134.70 22.46Q135.76 20.92 136.08 17.68ZM164.48 0.24L164.48 5.20L156.84 5.20L156.84 28.72L151.28 28.72L151.28 5.20L143.68 5.20L143.68 0.24L164.48 0.24ZM187.56 23.76L187.56 28.72L177.48 28.72Q172.68 28.72 170.74 27.06Q168.80 25.40 168.80 21.20L168.80 21.20L168.80 0.24L187.56 0.24L187.56 5.20L174.36 5.20L174.36 11.88L183.60 11.88L183.20 16.84L174.36 16.84L174.36 20.80Q174.36 22.48 175.12 23.12Q175.88 23.76 177.88 23.76L177.88 23.76L187.56 23.76ZM209.64 0.24L215.20 0.24L215.20 25.84Q215.20 27.16 214.40 28.10Q213.60 29.04 212.52 29.04L212.52 29.04Q209.76 29.04 208.00 25.84L208.00 25.84L198.16 10.44L198.16 28.72L192.60 28.72L192.60 0.24L197.96 0.24L209.64 18.88L209.64 0.24Z" transform="translate(110.373 66.333) scale(1)"></path></svg>